<svg width="147" height="21" viewBox="0 0 147 21" fill="none" xmlns="http://www.w3.org/2000/svg">
<path d="M6.43674 20.3772C9.57217 20.3772 11.6802 18.9305 12.3599 16.6568C12.529 16.0914 12.0576 15.5774 11.4675 15.5774H10.3288C9.86812 15.5774 9.48712 15.904 9.27261 16.3117C8.80307 17.204 7.90551 17.686 6.43674 17.686C4.30041 17.686 3.02416 16.2155 3.02416 13.5798C3.02416 10.944 4.30041 9.47357 6.43674 9.47357C7.92343 9.47357 8.82489 9.98564 9.28961 10.9652C9.48986 11.3874 9.87582 11.7209 10.343 11.7209H11.4705C12.0595 11.7209 12.5302 11.2093 12.3692 10.6426C11.6996 8.2847 9.58659 6.78234 6.43674 6.78234C2.41378 6.78234 0 9.5568 0 13.5798C0 17.6027 2.41378 20.3772 6.43674 20.3772Z" fill="white"/>
<path d="M22.18 6.78234C20.2657 6.78234 18.7675 7.53144 17.9629 8.91867V1.62305C17.9629 1.07076 17.5152 0.623047 16.9629 0.623047H15.9387C15.3864 0.623047 14.9387 1.07076 14.9387 1.62305V19.0442C14.9387 19.5965 15.3864 20.0442 15.9387 20.0442H16.9629C17.5152 20.0442 17.9629 19.5965 17.9629 19.0442V12.9416C17.9629 10.6666 19.0727 9.36259 21.0425 9.36259C23.1511 9.36259 23.8725 10.5556 23.8725 13.3023V19.0442C23.8725 19.5965 24.3202 20.0442 24.8725 20.0442H25.8966C26.4489 20.0442 26.8966 19.5965 26.8966 19.0442V11.9151C26.8966 8.53025 25.2874 6.78234 22.18 6.78234Z" fill="white"/>
<path d="M35.481 20.3772C37.0624 20.3772 38.8381 19.6003 39.6427 18.2963V19.0442C39.6427 19.5965 40.0904 20.0442 40.6427 20.0442H41.6391C42.1914 20.0442 42.6391 19.5965 42.6391 19.0442V8.11528C42.6391 7.56299 42.1914 7.11528 41.6391 7.11528H40.6427C40.0904 7.11528 39.6427 7.56299 39.6427 8.11528V8.86318C38.8381 7.55919 37.2844 6.78234 35.5642 6.78234C31.5412 6.78234 29.1275 9.77876 29.1275 13.5798C29.1275 17.3808 31.3193 20.3772 35.481 20.3772ZM35.9249 17.686C33.5666 17.686 32.1516 15.938 32.1516 13.5798C32.1516 11.2215 33.5666 9.47357 35.9249 9.47357C38.5051 9.47357 39.7536 11.3602 39.7536 13.5798C39.7536 15.7993 38.5051 17.686 35.9249 17.686Z" fill="white"/>
<path d="M51.8169 17.4917C50.6239 17.4917 49.9303 17.2143 49.9303 14.967V9.64003H51.8989C52.4512 9.64003 52.8989 9.19232 52.8989 8.64003V8.11528C52.8989 7.56299 52.4512 7.11528 51.8989 7.11528H49.9303V4.20329C49.9303 3.65101 49.4825 3.20329 48.9303 3.20329H47.9061C47.3538 3.20329 46.9061 3.65101 46.9061 4.20329V7.11528H45.7143C45.162 7.11528 44.7143 7.56299 44.7143 8.11528V8.64003C44.7143 9.19232 45.162 9.64003 45.7143 9.64003H46.9061V15.6606C46.9061 20.0165 49.6251 20.2107 51.0955 20.2107C51.5914 20.2107 52.0872 20.1848 52.5105 20.1473C52.9939 20.1046 53.3428 19.6905 53.3428 19.2053V18.579C53.3428 17.9551 52.7732 17.461 52.1498 17.4847C52.0308 17.4892 51.9175 17.4917 51.8169 17.4917Z" fill="white"/>
<path d="M61.4224 17.4917C60.2293 17.4917 59.5357 17.2143 59.5357 14.967V9.64003H61.5044C62.0567 9.64003 62.5044 9.19232 62.5044 8.64003V8.11528C62.5044 7.56299 62.0567 7.11528 61.5044 7.11528H59.5357V4.20329C59.5357 3.65101 59.088 3.20329 58.5357 3.20329H57.5116C56.9593 3.20329 56.5116 3.65101 56.5116 4.20329V7.11528H55.3197C54.7675 7.11528 54.3197 7.56299 54.3197 8.11528V8.64003C54.3197 9.19232 54.7675 9.64003 55.3197 9.64003H56.5116V15.6606C56.5116 20.0165 59.2305 20.2107 60.701 20.2107C61.1968 20.2107 61.6927 20.1848 62.116 20.1473C62.5994 20.1046 62.9483 19.6905 62.9483 19.2053V18.579C62.9483 17.9551 62.3787 17.461 61.7552 17.4847C61.6363 17.4892 61.523 17.4917 61.4224 17.4917Z" fill="white"/>
<path d="M76.7465 12.9139C76.7465 9.27935 74.2495 6.78234 70.5594 6.78234C66.6197 6.78234 64.0672 9.44582 64.0672 13.5798C64.0672 17.7692 66.592 20.3772 70.6704 20.3772C73.2719 20.3772 75.4067 19.191 76.2608 17.3884C76.5244 16.832 76.0496 16.271 75.434 16.271H74.1739C73.7951 16.271 73.4633 16.4976 73.2224 16.7899C72.6917 17.434 71.88 17.7414 70.6704 17.7414C68.4786 17.7414 67.1468 16.6317 67.0636 14.5786H75.7372C76.2597 14.5786 76.6994 14.1765 76.7266 13.6547C76.7399 13.4019 76.7465 13.1711 76.7465 12.9139ZM67.0636 12.2758C67.0914 10.4446 68.3676 9.16838 70.5039 9.16838C72.5848 9.16838 73.7501 10.2782 73.7778 12.2758H67.0636Z" fill="white"/>
<path d="M81.1384 20.0442C81.6907 20.0442 82.1384 19.5965 82.1384 19.0442V14.3289C82.1384 11.3879 83.4424 9.77876 85.5788 9.77876C85.603 9.77876 85.6265 9.77876 85.6496 9.77876C86.2482 9.77896 86.7718 9.3083 86.7718 8.7097V7.84056C86.7718 7.3817 86.4573 6.97972 85.999 6.95786C85.8665 6.95154 85.7267 6.94881 85.5788 6.94881C84.1638 6.94881 82.6101 7.78115 82.1384 9.61229V8.11528C82.1384 7.56299 81.6907 7.11528 81.1384 7.11528H80.1143C79.562 7.11528 79.1143 7.56299 79.1143 8.11528V19.0442C79.1143 19.5965 79.562 20.0442 80.1143 20.0442H81.1384Z" fill="white"/>
<path d="M96.0721 6.78234C94.2409 6.78234 92.5208 7.61468 91.7162 8.86318V1.62305C91.7162 1.07076 91.2685 0.623047 90.7162 0.623047H89.7198C89.1675 0.623047 88.7198 1.07076 88.7198 1.62305V19.0442C88.7198 19.5965 89.1675 20.0442 89.7198 20.0442H90.7162C91.2685 20.0442 91.7162 19.5965 91.7162 19.0442V18.2963C92.5208 19.5448 94.1577 20.3772 95.8779 20.3772C99.6234 20.3772 102.231 17.575 102.231 13.5798C102.231 9.50131 99.7621 6.78234 96.0721 6.78234ZM95.4339 17.686C93.1589 17.686 91.6052 16.0213 91.6052 13.5798C91.6052 11.1382 93.1589 9.47357 95.4339 9.47357C97.6535 9.47357 99.2072 11.166 99.2072 13.5798C99.2072 15.9935 97.6535 17.686 95.4339 17.686Z" fill="white"/>
<path d="M110.438 20.3772C114.711 20.3772 117.263 17.3808 117.263 13.5798C117.263 9.77876 114.711 6.78234 110.438 6.78234C106.165 6.78234 103.613 9.77876 103.613 13.5798C103.613 17.3808 106.165 20.3772 110.438 20.3772ZM110.438 17.686C107.997 17.686 106.637 15.938 106.637 13.5798C106.637 11.2215 107.997 9.47357 110.438 9.47357C112.88 9.47357 114.239 11.2215 114.239 13.5798C114.239 15.938 112.88 17.686 110.438 17.686Z" fill="white"/>
<path d="M125.327 17.4917C124.134 17.4917 123.44 17.2143 123.44 14.967V9.64003H125.409C125.961 9.64003 126.409 9.19232 126.409 8.64003V8.11528C126.409 7.56299 125.961 7.11528 125.409 7.11528H123.44V4.20329C123.44 3.65101 122.993 3.20329 122.44 3.20329H121.416C120.864 3.20329 120.416 3.65101 120.416 4.20329V7.11528H119.224C118.672 7.11528 118.224 7.56299 118.224 8.11528V8.64003C118.224 9.19232 118.672 9.64003 119.224 9.64003H120.416V15.6606C120.416 20.0165 123.135 20.2107 124.606 20.2107C125.101 20.2107 125.597 20.1848 126.021 20.1473C126.504 20.1046 126.853 19.6905 126.853 19.2053V18.579C126.853 17.9551 126.283 17.461 125.66 17.4847C125.541 17.4892 125.428 17.4917 125.327 17.4917Z" fill="white"/>
<circle cx="132.137" cy="18.3927" r="1.65146" fill="white"/>
<circle cx="138.743" cy="15.0899" r="1.65146" fill="white"/>
<circle cx="145.348" cy="17.0714" r="1.65146" fill="white"/>
</svg>
