<svg width="223" height="31" viewBox="0 0 223 31" fill="none" xmlns="http://www.w3.org/2000/svg">
<path d="M10.214 30.5041C15.2072 30.5041 18.4793 28.0804 19.3235 24.3252C19.4529 23.7494 18.9853 23.2381 18.3952 23.2381H15.7026C15.242 23.2381 14.8527 23.5584 14.6774 23.9844C14.0253 25.5685 12.6302 26.4301 10.214 26.4301C6.97997 26.4301 5.04797 24.2041 5.04797 20.2141C5.04797 16.2241 6.97997 13.9981 10.214 13.9981C12.6486 13.9981 14.0464 14.9052 14.6921 16.6342C14.8556 17.0719 15.2497 17.4001 15.7169 17.4001H18.3982C18.9872 17.4001 19.4541 16.8906 19.3306 16.3147C18.4979 12.4323 15.2214 9.9241 10.214 9.9241C4.12397 9.9241 0.469971 14.1241 0.469971 20.2141C0.469971 26.3041 4.12397 30.5041 10.214 30.5041Z" fill="black"/>
<path d="M34.0463 9.9241C31.1483 9.9241 28.8803 11.0581 27.6623 13.1581V1.6001C27.6623 1.04781 27.2146 0.600098 26.6623 0.600098H24.0843C23.5321 0.600098 23.0843 1.04781 23.0843 1.6001V29.0001C23.0843 29.5524 23.5321 30.0001 24.0843 30.0001H26.6623C27.2146 30.0001 27.6623 29.5524 27.6623 29.0001V19.2481C27.6623 15.8041 29.3423 13.8301 32.3243 13.8301C35.5163 13.8301 36.6083 15.6361 36.6083 19.7941V29.0001C36.6083 29.5524 37.0561 30.0001 37.6083 30.0001H40.1863C40.7386 30.0001 41.1863 29.5524 41.1863 29.0001V17.6941C41.1863 12.5701 38.7503 9.9241 34.0463 9.9241Z" fill="black"/>
<path d="M54.1814 30.5041C56.5754 30.5041 59.2634 29.3281 60.4814 27.3541V29.0001C60.4814 29.5524 60.9291 30.0001 61.4814 30.0001H64.0174C64.5697 30.0001 65.0174 29.5524 65.0174 29.0001V11.4281C65.0174 10.8758 64.5697 10.4281 64.0174 10.4281H61.4814C60.9291 10.4281 60.4814 10.8758 60.4814 11.4281V13.0741C59.2634 11.1001 56.9114 9.9241 54.3074 9.9241C48.2174 9.9241 44.5634 14.4601 44.5634 20.2141C44.5634 25.9681 47.8814 30.5041 54.1814 30.5041ZM54.8534 26.4301C51.2834 26.4301 49.1414 23.7841 49.1414 20.2141C49.1414 16.6441 51.2834 13.9981 54.8534 13.9981C58.7594 13.9981 60.6494 16.8541 60.6494 20.2141C60.6494 23.5741 58.7594 26.4301 54.8534 26.4301Z" fill="black"/>
<path d="M78.9109 26.1361C77.1049 26.1361 76.0549 25.7161 76.0549 22.3141V14.2501H79.5489C80.1012 14.2501 80.5489 13.8024 80.5489 13.2501V11.4281C80.5489 10.8758 80.1012 10.4281 79.5489 10.4281H76.0549V5.5061C76.0549 4.95381 75.6072 4.5061 75.0549 4.5061H72.4769C71.9246 4.5061 71.4769 4.95381 71.4769 5.5061V10.4281H69.1589C68.6066 10.4281 68.1589 10.8758 68.1589 11.4281V13.2501C68.1589 13.8024 68.6066 14.2501 69.1589 14.2501H71.4769V23.3641C71.4769 29.9581 75.5929 30.2521 77.8189 30.2521C78.7445 30.2521 79.67 30.1923 80.3899 30.114C80.8722 30.0615 81.2209 29.6464 81.2209 29.1611V27.1663C81.2209 26.5424 80.6522 26.0509 80.0297 26.0928C79.638 26.1191 79.232 26.1361 78.9109 26.1361Z" fill="black"/>
<path d="M93.4517 26.1361C91.6457 26.1361 90.5957 25.7161 90.5957 22.3141V14.2501H94.0897C94.642 14.2501 95.0897 13.8024 95.0897 13.2501V11.4281C95.0897 10.8758 94.642 10.4281 94.0897 10.4281H90.5957V5.5061C90.5957 4.95381 90.148 4.5061 89.5957 4.5061H87.0177C86.4655 4.5061 86.0177 4.95381 86.0177 5.5061V10.4281H83.6997C83.1475 10.4281 82.6997 10.8758 82.6997 11.4281V13.2501C82.6997 13.8024 83.1475 14.2501 83.6997 14.2501H86.0177V23.3641C86.0177 29.9581 90.1337 30.2521 92.3597 30.2521C93.2853 30.2521 94.2109 30.1923 94.9307 30.114C95.4131 30.0615 95.7617 29.6464 95.7617 29.1611V27.1663C95.7617 26.5424 95.1931 26.0509 94.5706 26.0928C94.1789 26.1191 93.7728 26.1361 93.4517 26.1361Z" fill="black"/>
<path d="M116.65 19.2061C116.65 13.7041 112.87 9.9241 107.284 9.9241C101.32 9.9241 97.4555 13.9561 97.4555 20.2141C97.4555 26.5561 101.278 30.5041 107.452 30.5041C111.652 30.5041 115.048 28.4617 116.146 25.4231C116.355 24.8441 115.881 24.2881 115.266 24.2881H112.438C112.059 24.2881 111.722 24.5088 111.506 24.8202C110.711 25.9682 109.435 26.5141 107.452 26.5141C104.134 26.5141 102.118 24.8341 101.992 21.7261H115.597C116.12 21.7261 116.556 21.3238 116.591 20.8024C116.63 20.2155 116.65 19.7498 116.65 19.2061ZM101.992 18.2401C102.034 15.4681 103.966 13.5361 107.2 13.5361C110.35 13.5361 112.114 15.2161 112.156 18.2401H101.992Z" fill="black"/>
<path d="M123.812 30.0001C124.364 30.0001 124.812 29.5524 124.812 29.0001V21.3481C124.812 16.8961 126.786 14.4601 130.02 14.4601C130.283 14.4601 130.5 14.4601 130.705 14.4643C131.303 14.4765 131.826 14.0181 131.826 13.4196V11.1249C131.826 10.666 131.513 10.2613 131.056 10.2178C130.742 10.1879 130.399 10.1761 130.02 10.1761C127.878 10.1761 125.526 11.4361 124.812 14.2081V11.4281C124.812 10.8758 124.364 10.4281 123.812 10.4281H121.234C120.682 10.4281 120.234 10.8758 120.234 11.4281V29.0001C120.234 29.5524 120.682 30.0001 121.234 30.0001H123.812Z" fill="black"/>
<path d="M145.905 9.9241C143.133 9.9241 140.529 11.1841 139.311 13.0741V1.6001C139.311 1.04781 138.863 0.600098 138.311 0.600098H135.775C135.223 0.600098 134.775 1.04781 134.775 1.6001V29.0001C134.775 29.5524 135.223 30.0001 135.775 30.0001H138.311C138.863 30.0001 139.311 29.5524 139.311 29.0001V27.3541C140.529 29.2441 143.007 30.5041 145.611 30.5041C151.281 30.5041 155.229 26.2621 155.229 20.2141C155.229 14.0401 151.491 9.9241 145.905 9.9241ZM144.939 26.4301C141.495 26.4301 139.143 23.9101 139.143 20.2141C139.143 16.5181 141.495 13.9981 144.939 13.9981C148.299 13.9981 150.651 16.5601 150.651 20.2141C150.651 23.8681 148.299 26.4301 144.939 26.4301Z" fill="black"/>
<path d="M167.652 30.5041C174.12 30.5041 177.984 25.9681 177.984 20.2141C177.984 14.4601 174.12 9.9241 167.652 9.9241C161.184 9.9241 157.32 14.4601 157.32 20.2141C157.32 25.9681 161.184 30.5041 167.652 30.5041ZM167.652 26.4301C163.956 26.4301 161.898 23.7841 161.898 20.2141C161.898 16.6441 163.956 13.9981 167.652 13.9981C171.348 13.9981 173.406 16.6441 173.406 20.2141C173.406 23.7841 171.348 26.4301 167.652 26.4301Z" fill="black"/>
<path d="M190.191 26.1361C188.385 26.1361 187.335 25.7161 187.335 22.3141V14.2501H190.829C191.381 14.2501 191.829 13.8024 191.829 13.2501V11.4281C191.829 10.8758 191.381 10.4281 190.829 10.4281H187.335V5.5061C187.335 4.95381 186.887 4.5061 186.335 4.5061H183.757C183.205 4.5061 182.757 4.95381 182.757 5.5061V10.4281H180.439C179.887 10.4281 179.439 10.8758 179.439 11.4281V13.2501C179.439 13.8024 179.887 14.2501 180.439 14.2501H182.757V23.3641C182.757 29.9581 186.873 30.2521 189.099 30.2521C190.025 30.2521 190.95 30.1923 191.67 30.114C192.153 30.0615 192.501 29.6464 192.501 29.1611V27.1663C192.501 26.5424 191.933 26.0509 191.31 26.0928C190.918 26.1191 190.512 26.1361 190.191 26.1361Z" fill="black"/>
<circle cx="200.5" cy="27.5" r="2.5" fill="black"/>
<circle cx="210.5" cy="22.5" r="2.5" fill="black"/>
<circle cx="220.5" cy="25.5" r="2.5" fill="black"/>
</svg>
